<?xml version="1.0" encoding="UTF-8"?>
<svg version="1.1" xmlns="http://www.w3.org/2000/svg" width="200" height="200">
<path d="M0 0 C3.81254623 -0.02682792 7.62490612 -0.04675477 11.4375 -0.0625 C12.52611328 -0.07087891 13.61472656 -0.07925781 14.73632812 -0.08789062 C15.77080078 -0.09111328 16.80527344 -0.09433594 17.87109375 -0.09765625 C18.82943115 -0.10289307 19.78776855 -0.10812988 20.77514648 -0.11352539 C23 0 23 0 24 1 C24.0165911 2.41844613 23.9633054 3.83787607 23.87890625 5.25390625 C23.83056641 6.10791016 23.78222656 6.96191406 23.73242188 7.84179688 C23.67634766 8.73962891 23.62027344 9.63746094 23.5625 10.5625 C23.51029297 11.46419922 23.45808594 12.36589844 23.40429688 13.29492188 C23.27419751 15.5302655 23.13922064 17.7652089 23 20 C24.7015625 19.9690625 24.7015625 19.9690625 26.4375 19.9375 C30 20 30 20 31 21 C31.04092937 23.33297433 31.04241723 25.66705225 31 28 C25.67429045 29.13142757 20.63080328 29.04348763 15.2265625 28.87890625 C13.8409462 28.84348976 13.8409462 28.84348976 12.42733765 28.80735779 C9.49305284 28.73112506 6.55905929 28.64692817 3.625 28.5625 C1.62892024 28.50923883 -0.3671735 28.45649874 -2.36328125 28.40429688 C-7.24236999 28.27556491 -12.12121327 28.13969257 -17 28 C-17.42923515 28.95024803 -17.42923515 28.95024803 -17.86714172 29.91969299 C-19 32 -19 32 -21.12573242 33.28491211 C-23.37576118 34.95509114 -23.37576118 34.95509114 -23.28637695 38.33813477 C-23.20867453 39.70729343 -23.1078166 41.07526409 -22.98828125 42.44140625 C-22.91676094 43.52662819 -22.91676094 43.52662819 -22.84379578 44.6337738 C-22.68613032 46.94519773 -22.49915173 49.25325536 -22.3125 51.5625 C-22.20456712 53.12162034 -22.09842596 54.68086582 -21.99414062 56.24023438 C-21.84929701 63.3391739 -21.84929701 63.3391739 -20 70 C-19.375 73.1875 -19.375 73.1875 -20 77 C-22.66482791 79.79052734 -25.83520283 81.81400608 -29 84 C-30.78166071 85.40302539 -32.55268947 86.81966366 -34.3125 88.25 C-38.84242345 91.89728136 -38.84242345 91.89728136 -41.19921875 93.43359375 C-43.48498896 95.42186676 -43.81731424 96.88862877 -44.5 99.8125 C-45.6996704 104.28995838 -47.06818249 107.40615918 -50 111 C-50.66 111 -51.32 111 -52 111 C-52.14861989 116.17768847 -52.25734045 121.35412901 -52.32958984 126.53344727 C-52.35971388 128.29408399 -52.40062296 130.05457122 -52.45263672 131.81469727 C-52.52565267 134.34949626 -52.55949741 136.88230799 -52.5859375 139.41796875 C-52.61690521 140.20149216 -52.64787292 140.98501556 -52.67977905 141.7922821 C-52.68114066 144.01679588 -52.61275832 145.85956066 -52 148 C-49.07720582 150.67964098 -49.07720582 150.67964098 -46 153 C-45.67 154.98 -45.34 156.96 -45 159 C-52.92 159 -60.84 159 -69 159 C-68.505 139.2 -68.505 139.2 -68 119 C-70.31 119 -72.62 119 -75 119 C-74.90590803 123.57187518 -74.79969581 128.14325521 -74.68261719 132.71459961 C-74.64451516 134.26725716 -74.60963072 135.81999733 -74.578125 137.37280273 C-74.53206315 139.61471947 -74.47414122 141.85607645 -74.4140625 144.09765625 C-74.40251129 144.78336197 -74.39096008 145.46906769 -74.37905884 146.17555237 C-74.23488101 150.96575657 -73.37545301 154.18591445 -72 159 C-80.58 159 -89.16 159 -98 159 C-95.69565217 150.93478261 -95.69565217 150.93478261 -91 148 C-90.34 148 -89.68 148 -89 148 C-89.10828125 146.20369141 -89.10828125 146.20369141 -89.21875 144.37109375 C-89.31340849 142.72661454 -89.40708771 141.08207879 -89.5 139.4375 C-89.57371826 138.15141846 -89.57371826 138.15141846 -89.64892578 136.83935547 C-90.00059609 130.23359017 -89.99144484 123.71421299 -89.7421875 117.1015625 C-90.03599989 113.56691044 -90.97468618 111.86960127 -93 109 C-93.680625 107.88625 -94.36125 106.7725 -95.0625 105.625 C-95.38347656 105.10164063 -95.70445313 104.57828125 -96.03515625 104.0390625 C-97 102 -97 102 -97.734375 98.55859375 C-99.26984075 94.2412811 -101.42577731 92.70590724 -105.1875 90.4375 C-110.12140484 87.25022997 -114.68944687 83.99428973 -119 80 C-119.99 79.154375 -120.98 78.30875 -122 77.4375 C-124 75 -124 75 -123.9375 72.4375 C-123 70 -123 70 -121.98095703 68.30957031 C-120.63177238 65.13304299 -120.53457272 62.01124373 -120.3671875 58.609375 C-120.32562531 57.90476135 -120.28406311 57.20014771 -120.24124146 56.47418213 C-120.1109398 54.23316773 -119.99280719 51.99170249 -119.875 49.75 C-119.78856353 48.22651672 -119.70133284 46.70307828 -119.61328125 45.1796875 C-119.39965059 41.45360031 -119.19692501 37.72701168 -119 34 C-119.61875 33.731875 -120.2375 33.46375 -120.875 33.1875 C-123 32 -123 32 -125 29 C-127.58380177 28.74969023 -127.58380177 28.74969023 -130 29 C-130.14695312 29.58007812 -130.29390625 30.16015625 -130.4453125 30.7578125 C-132.04884153 36.34251706 -133.86117829 40.89228925 -139 44 C-143.04792602 45.19938549 -146.62792024 45.28065268 -150.75 44.4375 C-155.94348567 41.11943971 -158.40985763 36.8068592 -160 31 C-160.72020716 23.46120821 -160.50642685 16.77103115 -157 10 C-153.23610803 5.57742694 -151.00881472 4.16465694 -145.1875 3.6875 C-140.75247102 3.77701435 -138.33562087 4.96761739 -135 8 C-132.79994039 11.49338538 -131.30250235 15.09249294 -130 19 C-128.02 19.33 -126.04 19.66 -124 20 C-123.505 18.515 -123.505 18.515 -123 17 C-122.01 16.67 -121.02 16.34 -120 16 C-120 17.32 -120 18.64 -120 20 C-117.36 20 -114.72 20 -112 20 C-111.67 18.68 -111.34 17.36 -111 16 C-110.01 16.66 -109.02 17.32 -108 18 C-108 18.66 -108 19.32 -108 20 C-83.58 20 -59.16 20 -34 20 C-33.34 18.68 -32.68 17.36 -32 16 C-31.34 16.33 -30.68 16.66 -30 17 C-30 17.99 -30 18.98 -30 20 C-27.36 20 -24.72 20 -22 20 C-22 18.68 -22 17.36 -22 16 C-18.125 17.875 -18.125 17.875 -17 19 C-14.69 19.33 -12.38 19.66 -10 20 C-10 14.72 -10 9.44 -10 4 C-6 3 -6 3 -3 4 C-3 9.61 -3 15.22 -3 21 C-2.01 20.505 -2.01 20.505 -1 20 C-0.67 13.4 -0.34 6.8 0 0 Z M-149.5625 12.125 C-152.92042622 16.08563092 -153.7972594 19.2091247 -154.375 24.3125 C-153.89188282 29.0631523 -152.84513101 33.10142398 -150 37 C-146.31007469 38.31783047 -144.37757662 38.57399026 -140.75 37.0625 C-137.74381293 33.51949381 -136.08227893 29.58936627 -135.93359375 24.91015625 C-136.44408442 19.48228604 -137.98878647 14.88551269 -142 11.125 C-145.39692264 9.21423102 -146.60491011 9.67236448 -149.5625 12.125 Z M-111 33 C-111.99 33.66 -112.98 34.32 -114 35 C-113.93941406 35.71800781 -113.87882812 36.43601562 -113.81640625 37.17578125 C-113.73261719 38.21089844 -113.64882812 39.24601562 -113.5625 40.3125 C-113.46582031 41.488125 -113.36914062 42.66375 -113.26953125 43.875 C-113.05022807 46.85576298 -112.94541399 49.82437873 -112.88671875 52.8125 C-112.86343506 53.63967529 -112.84015137 54.46685059 -112.81616211 55.3190918 C-112.77301469 56.94516026 -112.74821293 58.57185002 -112.74438477 60.19848633 C-112.55771335 66.17385726 -110.86103523 70.39544524 -107 75 C-103.88529393 77.07647071 -102.55611254 77.3624111 -98.9375 77.6875 C-98.05964844 77.77386719 -97.18179688 77.86023438 -96.27734375 77.94921875 C-93.96698537 78.17809345 -93.96698537 78.17809345 -92 77 C-91.02058084 74.06174253 -90.83520895 71.99112054 -90.75390625 68.921875 C-90.72103516 67.92542969 -90.68816406 66.92898437 -90.65429688 65.90234375 C-90.5935568 63.81650382 -90.5362126 61.73056197 -90.48242188 59.64453125 C-90.03362762 46.48554486 -90.03362762 46.48554486 -85.75 41.25 C-79.91457782 36.47556367 -75.43002467 35.44499312 -67.9765625 35.6484375 C-62.38072865 36.30936276 -58.66966887 38.41820843 -54.625 42.25 C-50.00000288 50.07691821 -50.61827109 59.23973054 -50.43359375 68.0390625 C-50.40394531 69.03421875 -50.37429687 70.029375 -50.34375 71.0546875 C-50.31571289 72.40796143 -50.31571289 72.40796143 -50.28710938 73.78857422 C-50.20211326 76.20467477 -50.20211326 76.20467477 -48 78 C-42.93735848 78.20887126 -37.85816574 77.40426389 -34 74 C-30.92052318 68.18063779 -30.29850592 62.75980401 -29.8125 56.25 C-29.73064453 55.32445313 -29.64878906 54.39890625 -29.56445312 53.4453125 C-29.3312771 50.63152452 -29.16559266 47.8184745 -29 45 C-28.90251465 44.02869141 -28.8050293 43.05738281 -28.70458984 42.05664062 C-28.60911865 40.62868164 -28.60911865 40.62868164 -28.51171875 39.171875 C-28.43783936 38.32206055 -28.36395996 37.47224609 -28.2878418 36.59667969 C-29.24745659 33.09772085 -30.62033221 31.43288937 -33.46775818 29.20498657 C-39.17915829 26.4871733 -45.86956921 27.16974547 -52.07421875 27.23828125 C-53.64647208 27.2367774 -55.21872464 27.23334388 -56.79096985 27.22807312 C-60.07530283 27.22375367 -63.35864976 27.24049272 -66.64282227 27.27270508 C-70.84994357 27.31258542 -75.05522736 27.30314106 -79.26240826 27.27847004 C-82.50447139 27.26428581 -85.74610545 27.2743725 -88.9881382 27.29198265 C-90.53945707 27.29782553 -92.09081995 27.29654027 -93.64212608 27.28795815 C-95.80887886 27.27995849 -97.97293816 27.30421563 -100.1394043 27.3371582 C-101.98637154 27.34764946 -101.98637154 27.34764946 -103.87065125 27.35835266 C-107.88786843 28.18205015 -108.74203401 29.683018 -111 33 Z M-80 45 C-84.53971687 49.69104076 -84.1337494 55.04582145 -84.0625 61.25 C-84.05798828 61.99507812 -84.05347656 62.74015625 -84.04882812 63.5078125 C-84.03709246 65.3385764 -84.0191585 67.16929873 -84 69 C-83.26136719 68.76023437 -82.52273437 68.52046875 -81.76171875 68.2734375 C-73.01156792 65.71621426 -66.57639023 66.14120326 -58 69 C-57.91827064 66.4784979 -57.85916627 63.95970083 -57.8125 61.4375 C-57.78736328 60.73302734 -57.76222656 60.02855469 -57.73632812 59.30273438 C-57.66460856 54.11501902 -58.57238492 50.60490055 -61 46 C-67.04415482 40.96320432 -73.36186696 41.29796426 -80 45 Z M-118 70 C-118.33 71.65 -118.66 73.3 -119 75 C-117.02 75.99 -117.02 75.99 -115 77 C-114.34 75.35 -113.68 73.7 -113 72 C-113.66 71.34 -114.32 70.68 -115 70 C-115.99 70 -116.98 70 -118 70 Z M-28 70 C-28.66 71.32 -29.32 72.64 -30 74 C-29.34 74 -28.68 74 -28 74 C-27.67 72.68 -27.34 71.36 -27 70 C-27.33 70 -27.66 70 -28 70 Z M-26 71 C-25.34 72.32 -24.68 73.64 -24 75 C-24 73.68 -24 72.36 -24 71 C-24.66 71 -25.32 71 -26 71 Z M-85 129 C-87.22738107 131.68671748 -87.22738107 131.68671748 -86.875 134.0625 C-85.7413007 136.57283417 -84.51381062 137.02691202 -82 138 C-81.01 137.34 -80.02 136.68 -79 136 C-78.7497843 132.91634129 -78.7497843 132.91634129 -79 130 C-81.97 129.505 -81.97 129.505 -85 129 Z M-62 129 C-62.66 129.66 -63.32 130.32 -64 131 C-63.90888062 133.53951544 -63.90888062 133.53951544 -63 136 C-61.515 136.99 -61.515 136.99 -60 138 C-58.68 137.01 -57.36 136.02 -56 135 C-56.33 133.35 -56.66 131.7 -57 130 C-59.39719432 129.32041397 -59.39719432 129.32041397 -62 129 Z " fill="#0D0B0B" transform="translate(165,26)"/>
<path d="M0 0 C3.81254623 -0.02682792 7.62490612 -0.04675477 11.4375 -0.0625 C12.52611328 -0.07087891 13.61472656 -0.07925781 14.73632812 -0.08789062 C15.77080078 -0.09111328 16.80527344 -0.09433594 17.87109375 -0.09765625 C18.82943115 -0.10289307 19.78776855 -0.10812988 20.77514648 -0.11352539 C23 0 23 0 24 1 C24.0165911 2.41844613 23.9633054 3.83787607 23.87890625 5.25390625 C23.83056641 6.10791016 23.78222656 6.96191406 23.73242188 7.84179688 C23.67634766 8.73962891 23.62027344 9.63746094 23.5625 10.5625 C23.51029297 11.46419922 23.45808594 12.36589844 23.40429688 13.29492188 C23.27419751 15.5302655 23.13922064 17.7652089 23 20 C24.7015625 19.9690625 24.7015625 19.9690625 26.4375 19.9375 C30 20 30 20 31 21 C31.04092937 23.33297433 31.04241723 25.66705225 31 28 C25.67429045 29.13142757 20.63080328 29.04348763 15.2265625 28.87890625 C13.8409462 28.84348976 13.8409462 28.84348976 12.42733765 28.80735779 C9.49305284 28.73112506 6.55905929 28.64692817 3.625 28.5625 C1.62892024 28.50923883 -0.3671735 28.45649874 -2.36328125 28.40429688 C-7.24236999 28.27556491 -12.12121327 28.13969257 -17 28 C-17.42923515 28.95024803 -17.42923515 28.95024803 -17.86714172 29.91969299 C-19 32 -19 32 -21.12573242 33.28491211 C-23.37576118 34.95509114 -23.37576118 34.95509114 -23.28637695 38.33813477 C-23.20867453 39.70729343 -23.1078166 41.07526409 -22.98828125 42.44140625 C-22.91676094 43.52662819 -22.91676094 43.52662819 -22.84379578 44.6337738 C-22.68613032 46.94519773 -22.49915173 49.25325536 -22.3125 51.5625 C-22.20456712 53.12162034 -22.09842596 54.68086582 -21.99414062 56.24023438 C-21.84929701 63.3391739 -21.84929701 63.3391739 -20 70 C-19.375 73.1875 -19.375 73.1875 -20 77 C-22.66482791 79.79052734 -25.83520283 81.81400608 -29 84 C-30.78166071 85.40302539 -32.55268947 86.81966366 -34.3125 88.25 C-38.79949422 91.86271676 -38.79949422 91.86271676 -41.16796875 93.484375 C-43.18695746 95.15466843 -44.00676727 96.59968757 -45 99 C-45.05607422 97.71416016 -45.05607422 97.71416016 -45.11328125 96.40234375 C-45.48846994 89.87700312 -46.08040572 84.83918856 -49 79 C-49 78.01 -49 77.02 -49 76 C-48.360625 76.226875 -47.72125 76.45375 -47.0625 76.6875 C-42.72307482 77.13029849 -38.67611651 76.42320789 -35 74 C-32.48798764 69.05600053 -31.45562098 64.63445042 -31.05078125 59.09765625 C-30.98843796 58.3750914 -30.92609467 57.65252655 -30.86186218 56.9080658 C-30.66759532 54.6269784 -30.48978108 52.34496373 -30.3125 50.0625 C-30.18273134 48.50446606 -30.05188208 46.94652173 -29.91992188 45.38867188 C-29.60078761 41.59336867 -29.29638883 37.79714439 -29 34 C-29.598125 33.731875 -30.19625 33.46375 -30.8125 33.1875 C-33 32 -33 32 -34.21205139 30.45202637 C-36.95035 28.22820306 -39.31206022 28.60367483 -42.79467773 28.58007812 C-43.48119415 28.57160858 -44.16771057 28.56313904 -44.87503052 28.55441284 C-47.14473997 28.531011 -49.41377278 28.53002137 -51.68359375 28.53125 C-53.26156384 28.5241502 -54.83953135 28.51645147 -56.41749573 28.50817871 C-59.72542496 28.49472656 -63.03311551 28.49316829 -66.34106445 28.49902344 C-70.57955181 28.50491983 -74.81689379 28.47433548 -79.05515957 28.43390656 C-82.31429714 28.40805207 -85.57315812 28.40515004 -88.83238411 28.40879822 C-90.39490703 28.40710477 -91.95744243 28.39744052 -93.51986504 28.37965393 C-95.70599791 28.35750644 -97.88980259 28.36714048 -100.07592773 28.38476562 C-101.31930405 28.38271118 -102.56268036 28.38065674 -103.84373474 28.37854004 C-107.18793112 28.7167814 -107.18793112 28.7167814 -109.30775452 31.47595215 C-109.86619553 32.30888794 -110.42463654 33.14182373 -111 34 C-111.99 34.495 -111.99 34.495 -113 35 C-112.93941406 35.71800781 -112.87882812 36.43601563 -112.81640625 37.17578125 C-112.73261719 38.21089844 -112.64882812 39.24601562 -112.5625 40.3125 C-112.46582031 41.488125 -112.36914062 42.66375 -112.26953125 43.875 C-112.05022807 46.85576298 -111.94541399 49.82437873 -111.88671875 52.8125 C-111.85179321 54.05326294 -111.85179321 54.05326294 -111.81616211 55.3190918 C-111.77301469 56.94516026 -111.74821293 58.57185002 -111.74438477 60.19848633 C-111.56160975 66.04913304 -110.03372601 70.62849098 -106 75 C-101.5271881 77.11300679 -96.8975655 77.24487827 -92 77 C-92.27714844 77.52207031 -92.55429688 78.04414062 -92.83984375 78.58203125 C-95.85788278 84.71477249 -96.74582043 90.20069654 -97 97 C-102.72565835 92.74085905 -108.38175241 88.39970252 -114 84 C-115.36125 82.948125 -115.36125 82.948125 -116.75 81.875 C-119.38609222 79.67825649 -121.80342227 77.64881433 -124 75 C-123.93292221 72.24981055 -123.39251139 70.65111377 -121.98095703 68.30957031 C-120.63177238 65.13304299 -120.53457272 62.01124373 -120.3671875 58.609375 C-120.32562531 57.90476135 -120.28406311 57.20014771 -120.24124146 56.47418213 C-120.1109398 54.23316773 -119.99280719 51.99170249 -119.875 49.75 C-119.78856353 48.22651672 -119.70133284 46.70307828 -119.61328125 45.1796875 C-119.39965059 41.45360031 -119.19692501 37.72701168 -119 34 C-119.61875 33.731875 -120.2375 33.46375 -120.875 33.1875 C-123 32 -123 32 -125 29 C-127.58380177 28.74969023 -127.58380177 28.74969023 -130 29 C-130.14695312 29.58007812 -130.29390625 30.16015625 -130.4453125 30.7578125 C-132.04884153 36.34251706 -133.86117829 40.89228925 -139 44 C-143.04792602 45.19938549 -146.62792024 45.28065268 -150.75 44.4375 C-155.94348567 41.11943971 -158.40985763 36.8068592 -160 31 C-160.72020716 23.46120821 -160.50642685 16.77103115 -157 10 C-153.23610803 5.57742694 -151.00881472 4.16465694 -145.1875 3.6875 C-140.75247102 3.77701435 -138.33562087 4.96761739 -135 8 C-132.79994039 11.49338538 -131.30250235 15.09249294 -130 19 C-128.02 19.33 -126.04 19.66 -124 20 C-123.505 18.515 -123.505 18.515 -123 17 C-122.01 16.67 -121.02 16.34 -120 16 C-120 17.32 -120 18.64 -120 20 C-117.36 20 -114.72 20 -112 20 C-111.67 18.68 -111.34 17.36 -111 16 C-110.01 16.66 -109.02 17.32 -108 18 C-108 18.66 -108 19.32 -108 20 C-83.58 20 -59.16 20 -34 20 C-33.34 18.68 -32.68 17.36 -32 16 C-31.34 16.33 -30.68 16.66 -30 17 C-30 17.99 -30 18.98 -30 20 C-27.36 20 -24.72 20 -22 20 C-22 18.68 -22 17.36 -22 16 C-18.125 17.875 -18.125 17.875 -17 19 C-14.69 19.33 -12.38 19.66 -10 20 C-10 14.72 -10 9.44 -10 4 C-6 3 -6 3 -3 4 C-3 9.61 -3 15.22 -3 21 C-2.01 20.505 -2.01 20.505 -1 20 C-0.67 13.4 -0.34 6.8 0 0 Z M-149.5625 12.125 C-152.92042622 16.08563092 -153.7972594 19.2091247 -154.375 24.3125 C-153.89188282 29.0631523 -152.84513101 33.10142398 -150 37 C-146.31007469 38.31783047 -144.37757662 38.57399026 -140.75 37.0625 C-137.74381293 33.51949381 -136.08227893 29.58936627 -135.93359375 24.91015625 C-136.44408442 19.48228604 -137.98878647 14.88551269 -142 11.125 C-145.39692264 9.21423102 -146.60491011 9.67236448 -149.5625 12.125 Z M-118 70 C-118.33 71.65 -118.66 73.3 -119 75 C-117.02 75.99 -117.02 75.99 -115 77 C-114.34 75.35 -113.68 73.7 -113 72 C-113.66 71.34 -114.32 70.68 -115 70 C-115.99 70 -116.98 70 -118 70 Z M-28 70 C-28.66 71.32 -29.32 72.64 -30 74 C-29.34 74 -28.68 74 -28 74 C-27.67 72.68 -27.34 71.36 -27 70 C-27.33 70 -27.66 70 -28 70 Z M-26 71 C-25.34 72.32 -24.68 73.64 -24 75 C-24 73.68 -24 72.36 -24 71 C-24.66 71 -25.32 71 -26 71 Z " fill="#E73940" transform="translate(165,26)"/>
<path d="M0 0 C3.81254623 -0.02682792 7.62490612 -0.04675477 11.4375 -0.0625 C12.52611328 -0.07087891 13.61472656 -0.07925781 14.73632812 -0.08789062 C15.77080078 -0.09111328 16.80527344 -0.09433594 17.87109375 -0.09765625 C18.82943115 -0.10289307 19.78776855 -0.10812988 20.77514648 -0.11352539 C23 0 23 0 24 1 C24.0165911 2.41844613 23.9633054 3.83787607 23.87890625 5.25390625 C23.83056641 6.10791016 23.78222656 6.96191406 23.73242188 7.84179688 C23.67634766 8.73962891 23.62027344 9.63746094 23.5625 10.5625 C23.51029297 11.46419922 23.45808594 12.36589844 23.40429688 13.29492188 C23.27419751 15.5302655 23.13922064 17.7652089 23 20 C24.134375 19.979375 25.26875 19.95875 26.4375 19.9375 C30 20 30 20 31 21 C31.04092937 23.33297433 31.04241723 25.66705225 31 28 C25.67429045 29.13142757 20.63080328 29.04348763 15.2265625 28.87890625 C13.8409462 28.84348976 13.8409462 28.84348976 12.42733765 28.80735779 C9.49305284 28.73112506 6.55905929 28.64692817 3.625 28.5625 C1.62892024 28.50923883 -0.3671735 28.45649874 -2.36328125 28.40429688 C-7.24236999 28.27556491 -12.12121327 28.13969257 -17 28 C-17.28615677 28.63349869 -17.57231354 29.26699738 -17.86714172 29.91969299 C-19 32 -19 32 -21.12573242 33.28491211 C-23.37576118 34.95509114 -23.37576118 34.95509114 -23.28637695 38.33813477 C-23.20867453 39.70729343 -23.1078166 41.07526409 -22.98828125 42.44140625 C-22.94060104 43.16488754 -22.89292084 43.88836884 -22.84379578 44.6337738 C-22.68613032 46.94519773 -22.49915173 49.25325536 -22.3125 51.5625 C-22.20456712 53.12162034 -22.09842596 54.68086582 -21.99414062 56.24023438 C-21.84929701 63.3391739 -21.84929701 63.3391739 -20 70 C-19.375 73.1875 -19.375 73.1875 -20 77 C-22.66482791 79.79052734 -25.83520283 81.81400608 -29 84 C-30.78166071 85.40302539 -32.55268947 86.81966366 -34.3125 88.25 C-38.79949422 91.86271676 -38.79949422 91.86271676 -41.16796875 93.484375 C-43.18695746 95.15466843 -44.00676727 96.59968757 -45 99 C-45.03738281 98.14277344 -45.07476562 97.28554687 -45.11328125 96.40234375 C-45.48846994 89.87700312 -46.08040572 84.83918856 -49 79 C-49 78.01 -49 77.02 -49 76 C-48.360625 76.226875 -47.72125 76.45375 -47.0625 76.6875 C-42.72307482 77.13029849 -38.67611651 76.42320789 -35 74 C-32.48798764 69.05600053 -31.45562098 64.63445042 -31.05078125 59.09765625 C-30.95726631 58.01380898 -30.95726631 58.01380898 -30.86186218 56.9080658 C-30.66759532 54.6269784 -30.48978108 52.34496373 -30.3125 50.0625 C-30.18273134 48.50446606 -30.05188208 46.94652173 -29.91992188 45.38867188 C-29.60078761 41.59336867 -29.29638883 37.79714439 -29 34 C-29.639375 33.7525 -30.27875 33.505 -30.9375 33.25 C-33 32 -33 32 -34 28 C-29.71 28 -25.42 28 -21 28 C-21 24.7 -21 21.4 -21 18 C-17.37 18.66 -13.74 19.32 -10 20 C-10 14.72 -10 9.44 -10 4 C-6 3 -6 3 -3 4 C-3 9.61 -3 15.22 -3 21 C-2.34 20.67 -1.68 20.34 -1 20 C-0.67 13.4 -0.34 6.8 0 0 Z M-28 70 C-28.66 71.32 -29.32 72.64 -30 74 C-29.34 74 -28.68 74 -28 74 C-27.67 72.68 -27.34 71.36 -27 70 C-27.33 70 -27.66 70 -28 70 Z M-26 71 C-25.34 72.32 -24.68 73.64 -24 75 C-24 73.68 -24 72.36 -24 71 C-24.66 71 -25.32 71 -26 71 Z " fill="#ED2E35" transform="translate(165,26)"/>
<path d="M0 0 C0.66 0 1.32 0 2 0 C2.12059395 2.52349247 2.23877634 5.04706779 2.35424805 7.57080078 C2.45160165 9.69431613 2.55203673 11.81769239 2.65551758 13.94091797 C2.90539548 19.37775706 2.98166593 24.69319187 2.6875 30.125 C2.56644435 33.67809289 2.56644435 33.67809289 4.296875 36.609375 C5.82710156 37.78983549 7.41216958 38.89824011 9 40 C9.33 41.98 9.66 43.96 10 46 C2.08 46 -5.84 46 -14 46 C-13.67 32.8 -13.34 19.6 -13 6 C-7.555 4.02 -7.555 4.02 -2 2 C-1.34 1.34 -0.68 0.68 0 0 Z M-7 16 C-7.66 16.66 -8.32 17.32 -9 18 C-8.90888062 20.53951544 -8.90888062 20.53951544 -8 23 C-6.515 23.99 -6.515 23.99 -5 25 C-3.68 24.01 -2.36 23.02 -1 22 C-1.33 20.35 -1.66 18.7 -2 17 C-4.39719432 16.32041397 -4.39719432 16.32041397 -7 16 Z " fill="#ED3940" transform="translate(110,139)"/>
<path d="M0 0 C4.18541091 3.80491901 5.9849989 8.20499671 7.75 13.5 C10.72 13.995 10.72 13.995 13.75 14.5 C13.42 17.14 13.09 19.78 12.75 22.5 C11.1 22.83 9.45 23.16 7.75 23.5 C7.60304688 24.08007812 7.45609375 24.66015625 7.3046875 25.2578125 C5.70115847 30.84251706 3.88882171 35.39228925 -1.25 38.5 C-5.29792602 39.69938549 -8.87792024 39.78065268 -13 38.9375 C-18.19348567 35.61943971 -20.65985763 31.3068592 -22.25 25.5 C-22.97020716 17.96120821 -22.75642685 11.27103115 -19.25 4.5 C-13.89786218 -1.78876194 -7.57258497 -3.49503922 0 0 Z M-11.8125 6.625 C-15.17042622 10.58563092 -16.0472594 13.7091247 -16.625 18.8125 C-16.14188282 23.5631523 -15.09513101 27.60142398 -12.25 31.5 C-8.56007469 32.81783047 -6.62757662 33.07399026 -3 31.5625 C0.00618707 28.01949381 1.66772107 24.08936627 1.81640625 19.41015625 C1.30591558 13.98228604 -0.23878647 9.38551269 -4.25 5.625 C-7.64692264 3.71423102 -8.85491011 4.17236448 -11.8125 6.625 Z " fill="#EF4148" transform="translate(27.25,31.5)"/>
<path d="M0 0 C0.66 0 1.32 0 2 0 C2 0.99 2 1.98 2 3 C2.639375 3.2475 3.27875 3.495 3.9375 3.75 C6.54653439 4.81491199 9.11827598 5.93036426 11.69140625 7.078125 C12.49908447 7.4380957 13.3067627 7.79806641 14.13891602 8.16894531 C15.06015259 8.58031738 15.06015259 8.58031738 16 9 C16.01981934 9.96301025 16.03963867 10.92602051 16.06005859 11.91821289 C16.13657179 15.51725849 16.22521561 19.11592369 16.31738281 22.71459961 C16.35548484 24.26725716 16.39036928 25.81999733 16.421875 27.37280273 C16.46793685 29.61471947 16.52585878 31.85607645 16.5859375 34.09765625 C16.59748871 34.78336197 16.60903992 35.46906769 16.62094116 36.17555237 C16.76511899 40.96575657 17.62454699 44.18591445 19 49 C10.42 49 1.84 49 -7 49 C-4.69565217 40.93478261 -4.69565217 40.93478261 0 38 C0.66 38 1.32 38 2 38 C1.9278125 36.80246094 1.855625 35.60492188 1.78125 34.37109375 C1.25312293 25.22789377 0.90160721 16.16473944 1.0625 7.00390625 C1.00927303 4.4456851 0.76243226 2.42429632 0 0 Z M6 19 C3.77261893 21.68671748 3.77261893 21.68671748 4.125 24.0625 C5.2586993 26.57283417 6.48618938 27.02691202 9 28 C9.99 27.34 10.98 26.68 12 26 C12.2502157 22.91634129 12.2502157 22.91634129 12 20 C9.03 19.505 9.03 19.505 6 19 Z " fill="#EA2C33" transform="translate(74,136)"/>
<path d="M0 0 C1.98 0 3.96 0 6 0 C6.05534912 1.0194873 6.11069824 2.03897461 6.16772461 3.08935547 C6.37389122 6.8653262 6.58584299 10.64095365 6.79956055 14.41650391 C6.89131433 16.05183244 6.98149081 17.68725026 7.07006836 19.32275391 C7.19752832 21.67115027 7.33062409 24.01916901 7.46484375 26.3671875 C7.50343002 27.10057343 7.5420163 27.83395935 7.58177185 28.58956909 C7.75483425 32.42155089 7.75483425 32.42155089 9 36 C9.625 39.1875 9.625 39.1875 9 43 C6.33517209 45.79052734 3.16479717 47.81400608 0 50 C-1.78166071 51.40302539 -3.55268947 52.81966366 -5.3125 54.25 C-9.79949422 57.86271676 -9.79949422 57.86271676 -12.16796875 59.484375 C-14.18695746 61.15466843 -15.00676727 62.59968757 -16 65 C-16.03738281 64.14277344 -16.07476562 63.28554687 -16.11328125 62.40234375 C-16.48846994 55.87700312 -17.08040572 50.83918856 -20 45 C-20 44.01 -20 43.02 -20 42 C-19.360625 42.226875 -18.72125 42.45375 -18.0625 42.6875 C-13.72307482 43.13029849 -9.67611651 42.42320789 -6 40 C-3.48798764 35.05600053 -2.45562098 30.63445042 -2.05078125 25.09765625 C-1.98843796 24.3750914 -1.92609467 23.65252655 -1.86186218 22.9080658 C-1.66759532 20.6269784 -1.48978108 18.34496373 -1.3125 16.0625 C-1.18273134 14.50446606 -1.05188208 12.94652173 -0.91992188 11.38867188 C-0.60078761 7.59336867 -0.29638883 3.79714439 0 0 Z M1 36 C0.34 37.32 -0.32 38.64 -1 40 C-0.34 40 0.32 40 1 40 C1.33 38.68 1.66 37.36 2 36 C1.67 36 1.34 36 1 36 Z M3 37 C3.66 38.32 4.32 39.64 5 41 C5 39.68 5 38.36 5 37 C4.34 37 3.68 37 3 37 Z " fill="#EE3F46" transform="translate(136,60)"/>
<path d="M0 0 C1.98 0 3.96 0 6 0 C5.95117188 2.83203125 5.95117188 2.83203125 5.90234375 5.6640625 C5.94935956 8.07146556 5.94935956 8.07146556 6.48828125 10.6875 C6.90116753 13.36022953 7.08851917 15.77227653 7.140625 18.4609375 C7.15996094 19.26273438 7.17929687 20.06453125 7.19921875 20.890625 C7.23290825 22.53881902 7.25128953 24.18740129 7.25390625 25.8359375 C7.43652742 31.83360125 8.82870781 36.52359395 13 41 C17.47549899 43.11046866 22.10040462 43.24497977 27 43 C26.72285156 43.52207031 26.44570312 44.04414062 26.16015625 44.58203125 C23.14211722 50.71477249 22.25417957 56.20069654 22 63 C16.27434165 58.74085905 10.61824759 54.39970252 5 50 C3.63875 48.948125 3.63875 48.948125 2.25 47.875 C-0.38609222 45.67825649 -2.80342227 43.64881433 -5 41 C-4.93292221 38.24981055 -4.39251139 36.65111377 -2.98095703 34.30957031 C-1.63177238 31.13304299 -1.53457272 28.01124373 -1.3671875 24.609375 C-1.30484421 23.55245453 -1.30484421 23.55245453 -1.24124146 22.47418213 C-1.1109398 20.23316773 -0.99280719 17.99170249 -0.875 15.75 C-0.78856353 14.22651672 -0.70133284 12.70307828 -0.61328125 11.1796875 C-0.39965059 7.45360031 -0.19692501 3.72701168 0 0 Z M1 36 C0.67 37.65 0.34 39.3 0 41 C1.98 41.99 1.98 41.99 4 43 C4.66 41.35 5.32 39.7 6 38 C5.34 37.34 4.68 36.68 4 36 C3.01 36 2.02 36 1 36 Z " fill="#ED3B42" transform="translate(46,60)"/>
<path d="M0 0 C1.32 0.33 2.64 0.66 4 1 C4.33 2.65 4.66 4.3 5 6 C6.32 6.33 7.64 6.66 9 7 C6.79765803 11.19705574 4.26882011 13.69816376 0.5625 16.625 C-0.38496094 17.38039063 -1.33242187 18.13578125 -2.30859375 18.9140625 C-3.91499968 20.15908539 -5.54624743 21.37440509 -7.22265625 22.5234375 C-9.20739037 24.17229354 -10.0215044 25.63530231 -11 28 C-11.05607422 26.71416016 -11.05607422 26.71416016 -11.11328125 25.40234375 C-11.48846994 18.87700312 -12.08040572 13.83918856 -15 8 C-15 7.01 -15 6.02 -15 5 C-14.360625 5.226875 -13.72125 5.45375 -13.0625 5.6875 C-8.73136379 6.12945267 -4.86083844 5.01018861 -1 3 C-0.67 2.01 -0.34 1.02 0 0 Z " fill="#EB373E" transform="translate(131,97)"/>
<path d="M0 0 C1.8671875 0.90234375 1.8671875 0.90234375 4.8671875 3.33984375 C5.5271875 5.64984375 6.1871875 7.95984375 6.8671875 10.33984375 C-1.7128125 10.33984375 -10.2928125 10.33984375 -19.1328125 10.33984375 C-17.1328125 3.33984375 -17.1328125 3.33984375 -15.1328125 0.90234375 C-10.21945192 -1.65669822 -5.27662283 -1.6332404 0 0 Z " fill="#262424" transform="translate(86.1328125,174.66015625)"/>
<path d="M0 0 C2.86972365 1.32889399 3.87079518 2.48863021 6 5 C6.33 6.98 6.66 8.96 7 11 C-0.92 11 -8.84 11 -17 11 C-17 9.02 -17 7.04 -17 5 C-11.75567366 -0.10631776 -7.13069846 -0.96095171 0 0 Z " fill="#211F1F" transform="translate(113,174)"/>
<path d="M0 0 C2.5625 0.25 2.5625 0.25 5.5625 2.25 C5.75 5.875 5.75 5.875 5.5625 9.25 C4.9025 9.25 4.2425 9.25 3.5625 9.25 C3.5625 15.85 3.5625 22.45 3.5625 29.25 C1.5825 29.25 -0.3975 29.25 -2.4375 29.25 C-2.45731934 28.69014404 -2.47713867 28.13028809 -2.49755859 27.5534668 C-2.59287783 25.01434146 -2.70252753 22.47603112 -2.8125 19.9375 C-2.8434375 19.05642578 -2.874375 18.17535156 -2.90625 17.26757812 C-2.94492188 16.42001953 -2.98359375 15.57246094 -3.0234375 14.69921875 C-3.0548584 13.91893311 -3.0862793 13.13864746 -3.11865234 12.3347168 C-3.33337889 9.94844232 -3.33337889 9.94844232 -5.4375 7.25 C-5.04242262 3.20045681 -4.49258331 0.46077778 0 0 Z " fill="#E21A22" transform="translate(93.4375,103.75)"/>
<path d="M0 0 C0.99 0 1.98 0 3 0 C3 3.3 3 6.6 3 10 C7.29 10 11.58 10 16 10 C15 14 15 14 13 16 C9.61387863 16.56042078 6.38999049 16.51943403 3 16 C0.375 14 0.375 14 -1 11 C-1.50514001 7.12474679 -1.24389617 3.73168852 0 0 Z " fill="#111111" transform="translate(41,44)"/>
<path d="M0 0 C0.66 0 1.32 0 2 0 C4.69358421 4.04037632 4.65035907 7.25922471 4 12 C2.625 14.5625 2.625 14.5625 0 16 C-8.40339066 17.1828013 -8.40339066 17.1828013 -11.80859375 14.66015625 C-13 13 -13 13 -13 10 C-8.71 10 -4.42 10 0 10 C0 6.7 0 3.4 0 0 Z " fill="#0F0E0E" transform="translate(144,44)"/>
<path d="M0 0 C0.33 1.32 0.66 2.64 1 4 C3.64 4 6.28 4 9 4 C9.33 2.68 9.66 1.36 10 0 C10.99 0.66 11.98 1.32 13 2 C12 4 12 4 10 5 C8.29297265 5.06996014 6.58331997 5.08440154 4.875 5.0625 C3.96492188 5.05347656 3.05484375 5.04445313 2.1171875 5.03515625 C1.41851562 5.02355469 0.71984375 5.01195312 0 5 C0 4.01 0 3.02 0 2 C-0.66 1.67 -1.32 1.34 -2 1 C-1.34 0.67 -0.68 0.34 0 0 Z " fill="#B5ACAC" transform="translate(44,42)"/>
<path d="M0 0 C0.99 0.33 1.98 0.66 3 1 C3 3 3 5 3 7 C1.35 7 -0.3 7 -2 7 C-2.33 6.01 -2.66 5.02 -3 4 C-2.34 4 -1.68 4 -1 4 C-0.67 2.68 -0.34 1.36 0 0 Z " fill="#FDEBEC" transform="translate(138,96)"/>
</svg>
